# xmcd
#
# Track frame offsets:
#	150
#	8656
#	18960
#	33037
#	45678
#	61669
#	77885
#	99317
#	111916
#	121100
#	136652
#	150494
#	161931
#	181055
#	194330
#	210774
#	226981
#
# Disc length: 3181 seconds
#
# Revision: 1
# Processed by: cddbd v1.5PL3 Copyright (c) Steve Scherf et al.
# Submitted via: audiograbber 1.83.01
#
DISCID=bf0c6b11
DTITLE=Nothin' Serious - Nothin' Serious
DYEAR=1900
DGENRE=
TTITLE0=Come Softly
TTITLE1=Straighten Up And Fly Right
TTITLE2=Secrets
TTITLE3=Light A Light
TTITLE4=Mr. Sellack
TTITLE5=Stormy Weather
TTITLE6=Bottoms Up
TTITLE7=I'm An Old Cowhand
TTITLE8=Java Jive
TTITLE9=You Don't Own Me
TTITLE10=Diner
TTITLE11=Case Of Them Blues
TTITLE12=I'm Getting Stronger 
TTITLE13=Walkin' My Baby
TTITLE14=Old Time Woman
TTITLE15=Summertime
TTITLE16=Imagine
EXTD=
EXTT0=
EXTT1=
EXTT2=
EXTT3=
EXTT4=
EXTT5=
EXTT6=
EXTT7=
EXTT8=
EXTT9=
EXTT10=
EXTT11=
EXTT12=
EXTT13=
EXTT14=
EXTT15=
EXTT16=
PLAYORDER=
